<?xml version="1.0" encoding="UTF-8"?>
<svg xmlns="http://www.w3.org/2000/svg" xmlns:xlink="http://www.w3.org/1999/xlink" version="1.1" x="0px" y="0px" viewBox="0 0 32 32" xml:space="preserve">
    <path d="M21.945 3.118l-1.493-1.493H1.625v27.257h8.43l1.493 1.493h18.827V3.118h-8.43zm-3.296 15.864c.336.291.596 1.317.596 1.789v4.174H14.478s.007-1.415 0-2.385c-3.264.702-4.174-1.789-4.174-1.789-.596-1.193-1.193-1.789-1.193-1.789-1.193-.708 0-.596 0-.596 1.193 0 1.789 1.193 1.789 1.193 1.047 1.777 2.909 1.491 3.578 1.193 0-.596.261-1.498.596-1.789-2.605-.293-4.773-1.789-4.773-4.771s.599-3.578 1.195-4.174c-.12-.294-.62-1.381.018-2.982 0 0 1.172 0 2.365 1.789.591-.591 2.385-.596 2.982-.596.595 0 2.39.005 2.981.596 1.193-1.789 2.368-1.789 2.368-1.789.638 1.601.139 2.688.018 2.982.596.596 1.193 1.193 1.193 4.174-.001 2.981-2.167 4.476-4.772 4.77z" id="Glyph"/>
</svg>
