<?xml version="1.0" encoding="UTF-8"?><svg xmlns="http://www.w3.org/2000/svg" xmlns:xlink="http://www.w3.org/1999/xlink" version="1.1" x="0px" y="0px" viewBox="0 0 32 32" xml:space="preserve"><path d="M21.945 3.118l-1.493-1.493H1.625v27.257h8.43l1.493 1.493h18.827V3.118h-8.43zM11.702 22.524H8.327V12.37h3.375v10.154zm-1.687-11.54h-.022c-1.133 0-1.866-.78-1.866-1.755 0-.996.755-1.754 1.909-1.754s1.866.758 1.887 1.754c.001.975-.732 1.755-1.908 1.755zm13.857 11.54h-3.375v-5.433c0-1.365-.488-2.296-1.71-2.296-.932 0-1.487.628-1.731 1.234-.089.217-.111.52-.111.823v5.671H13.57s.045-9.201 0-10.154h3.375v1.439c.447-.691 1.25-1.677 3.042-1.677 2.22 0 3.885 1.451 3.885 4.571v5.822z" id="Glyph"/><metadata><rdf:RDF xmlns:rdf="http://www.w3.org/1999/02/22-rdf-syntax-ns#" xmlns:rdfs="http://www.w3.org/2000/01/rdf-schema#" xmlns:dc="http://purl.org/dc/elements/1.1/"><rdf:Description about="https://iconscout.com/legal#licenses" dc:title="linkedin,social,media" dc:description="linkedin,social,media" dc:publisher="Iconscout" dc:date="2017-09-15" dc:format="image/svg+xml" dc:language="en"><dc:creator><rdf:Bag><rdf:li>Epicflaticon by Alfredo</rdf:li></rdf:Bag></dc:creator></rdf:Description></rdf:RDF></metadata></svg>